# xmcd
#
# Track frame offsets: 
#        150
#        15185
#        30080
#        53644
#        83685
#        96605
#        107412
#        121055
#        135605
#
# Disc length: 2047 seconds
#
# Revision: 5
# Processed by: cddbd v1.5.2PL0 Copyright (c) Steve Scherf et al.
# Submitted via: ExactAudioCopyFreeDBPlugin 1.0
#
DISCID=5a07fd09
DTITLE=Bobby Womack - Home Is Where The Heart Is
DYEAR=1976
DGENRE=Rhythm and Blues
TTITLE0=Home is Where The Heart Is
TTITLE1=Just a Little Bit Salty
TTITLE2=Standing in the Safety Zone
TTITLE3=One More Chance on Love
TTITLE4=How Long (Has This Been Goin' On)
TTITLE5=I Could Never Be Satisfied
TTITLE6=Something for My Head
TTITLE7=A Change is Gonna Come
TTITLE8=We've Only Just Begun
EXTD=YEAR: 1976
EXTT0=
EXTT1=
EXTT2=
EXTT3=
EXTT4=
EXTT5=
EXTT6=
EXTT7=
EXTT8=
PLAYORDER=
